<svg xmlns="http://www.w3.org/2000/svg" width="435" height="348" viewBox="0 0 435 348">
<path d="M 348.00 308.00 L 348.00 308.75 L 347.00 309.00 L 347.00 309.75 L 346.00 310.00 L 346.00 310.75 L 345.00 311.00 L 344.75 312.00 L 344.00 312.00 L 344.00 315.75 L 345.00 316.00 L 345.00 317.75 L 345.75 317.75 L 346.00 318.75 L 347.75 318.75 L 348.00 319.75 L 349.00 320.00 L 349.00 320.75 L 350.75 320.75 L 351.00 321.00 L 351.00 323.75 L 350.75 324.00 L 349.00 324.00 L 348.75 323.00 L 347.00 323.00 L 346.75 322.00 L 345.00 322.00 L 345.00 322.75 L 344.00 323.00 L 344.00 326.75 L 344.75 326.75 L 345.00 327.75 L 346.75 327.75 L 347.00 328.75 L 351.75 328.75 L 352.00 327.75 L 353.75 327.75 L 353.75 327.00 L 354.75 326.75 L 354.75 326.00 L 355.75 325.75 L 356.00 324.75 L 356.75 324.75 L 356.75 320.00 L 356.00 320.00 L 355.75 319.00 L 354.75 318.75 L 354.75 317.00 L 352.00 317.00 L 351.75 316.00 L 350.75 315.75 L 350.75 314.00 L 351.00 313.75 L 354.75 313.75 L 354.75 313.00 L 355.75 312.75 L 355.75 311.00 L 355.00 311.00 L 354.75 310.00 L 353.75 309.75 L 353.75 308.00 Z M 322.00 308.00 L 322.00 308.75 L 321.00 309.00 L 320.75 310.00 L 320.00 310.00 L 320.00 326.75 L 320.75 326.75 L 321.00 327.75 L 322.75 327.75 L 323.00 328.75 L 329.75 328.75 L 330.00 327.75 L 331.75 327.75 L 331.75 325.00 L 331.00 325.00 L 330.75 324.00 L 326.00 324.00 L 325.75 323.75 L 325.75 321.00 L 326.00 320.75 L 329.75 320.75 L 329.75 319.00 L 330.75 318.75 L 330.75 317.00 L 330.00 317.00 L 329.75 316.00 L 328.75 315.75 L 328.75 314.00 L 329.75 313.75 L 329.75 313.00 L 330.75 312.75 L 331.00 311.75 L 331.75 311.75 L 331.75 310.00 L 330.75 309.75 L 330.75 308.00 Z M 292.00 308.00 L 292.00 308.75 L 291.00 309.00 L 291.00 327.75 L 294.75 327.75 L 294.75 320.00 L 295.00 319.75 L 296.75 319.75 L 297.00 320.75 L 298.00 321.00 L 298.00 323.75 L 298.75 323.75 L 299.00 324.75 L 300.00 325.00 L 300.00 326.75 L 300.75 326.75 L 301.00 327.75 L 305.75 327.75 L 305.75 325.00 L 306.75 324.75 L 306.75 311.00 L 305.75 310.75 L 305.75 309.00 L 301.00 309.00 L 301.00 315.75 L 300.75 316.00 L 299.00 316.00 L 298.75 315.75 L 298.75 313.00 L 298.00 313.00 L 297.75 312.00 L 296.75 311.75 L 296.75 310.00 L 296.00 310.00 L 295.75 309.00 L 294.00 309.00 L 293.75 308.00 Z M 265.00 308.00 L 265.00 309.75 L 264.75 310.00 L 262.00 310.00 L 262.00 311.75 L 261.00 312.00 L 261.00 313.75 L 260.00 314.00 L 259.75 315.00 L 259.00 315.00 L 259.00 321.75 L 259.75 321.75 L 260.00 322.75 L 261.00 323.00 L 261.00 324.75 L 261.75 324.75 L 262.00 325.75 L 262.75 325.75 L 263.00 326.75 L 264.00 327.00 L 264.00 327.75 L 265.75 327.75 L 266.00 328.75 L 270.75 328.75 L 271.00 327.75 L 272.75 327.75 L 272.75 327.00 L 273.75 326.75 L 273.75 326.00 L 274.75 325.75 L 275.00 324.75 L 275.75 324.75 L 275.75 323.00 L 276.75 322.75 L 277.00 321.75 L 277.75 321.75 L 277.75 314.00 L 277.00 314.00 L 276.75 313.00 L 276.00 313.00 L 275.75 312.00 L 274.75 311.75 L 274.75 310.00 L 273.00 310.00 L 272.75 309.00 L 271.75 308.75 L 271.75 308.00 Z M 266.00 313.75 L 270.75 313.75 L 271.00 314.75 L 272.00 315.00 L 272.00 321.75 L 271.00 322.00 L 271.00 322.75 L 270.00 323.00 L 269.75 324.00 L 267.00 324.00 L 266.75 323.00 L 265.75 322.75 L 265.75 314.00 Z M 243.00 308.00 L 243.00 309.75 L 242.00 310.00 L 242.00 326.75 L 242.75 326.75 L 243.00 327.75 L 245.75 327.75 L 245.75 326.00 L 246.75 325.75 L 246.75 311.00 L 245.75 310.75 L 245.75 308.00 Z M 220.00 308.00 L 220.00 308.75 L 219.00 309.00 L 219.00 309.75 L 218.00 310.00 L 217.75 311.00 L 216.00 311.00 L 216.00 315.75 L 217.00 316.00 L 217.00 317.75 L 217.75 317.75 L 218.00 318.75 L 219.75 318.75 L 220.00 319.75 L 221.00 320.00 L 221.00 320.75 L 222.75 320.75 L 223.00 321.00 L 223.00 323.75 L 222.75 324.00 L 221.00 324.00 L 220.75 323.00 L 219.00 323.00 L 218.75 322.00 L 217.00 322.00 L 217.00 322.75 L 216.00 323.00 L 216.00 326.75 L 216.75 326.75 L 217.00 327.75 L 218.75 327.75 L 219.00 328.75 L 223.75 328.75 L 224.00 327.75 L 225.75 327.75 L 225.75 327.00 L 226.75 326.75 L 226.75 326.00 L 227.75 325.75 L 228.00 324.75 L 228.75 324.75 L 228.75 320.00 L 228.00 320.00 L 227.75 319.00 L 226.75 318.75 L 226.75 317.00 L 225.00 317.00 L 224.75 316.00 L 223.00 316.00 L 222.75 315.75 L 222.75 314.00 L 223.00 313.75 L 226.75 313.75 L 226.75 309.00 L 226.00 309.00 L 225.75 308.00 Z M 193.00 308.00 L 193.00 308.75 L 192.00 309.00 L 191.75 310.00 L 191.00 310.00 L 191.00 311.75 L 190.00 312.00 L 190.00 324.75 L 191.00 325.00 L 191.00 326.75 L 191.75 326.75 L 192.00 327.75 L 194.75 327.75 L 194.75 327.00 L 195.75 326.75 L 195.75 322.00 L 196.00 321.75 L 197.75 321.75 L 198.00 322.75 L 199.00 323.00 L 199.00 326.75 L 199.75 326.75 L 200.00 327.75 L 204.75 327.75 L 204.75 325.00 L 204.00 325.00 L 203.75 324.00 L 202.75 323.75 L 202.75 320.00 L 201.75 319.75 L 201.75 318.00 L 202.75 317.75 L 202.75 310.00 L 200.00 310.00 L 199.75 309.00 L 198.75 308.75 L 198.75 308.00 Z M 167.00 308.00 L 167.00 308.75 L 166.00 309.00 L 165.75 310.00 L 165.00 310.00 L 165.00 325.75 L 166.00 326.00 L 166.00 327.75 L 168.75 327.75 L 169.00 328.75 L 174.75 328.75 L 175.00 327.75 L 176.75 327.75 L 176.75 325.00 L 176.00 325.00 L 175.75 324.00 L 172.00 324.00 L 171.75 323.00 L 170.75 322.75 L 170.75 321.00 L 171.00 320.75 L 174.75 320.75 L 174.75 320.00 L 175.75 319.75 L 175.75 316.00 L 174.75 315.75 L 174.75 314.00 L 175.75 313.75 L 176.00 312.75 L 176.75 312.75 L 176.75 309.00 L 176.00 309.00 L 175.75 308.00 Z M 137.00 308.00 L 137.00 314.75 L 137.75 314.75 L 138.00 315.75 L 139.00 316.00 L 139.00 320.75 L 139.75 320.75 L 140.00 321.75 L 141.00 322.00 L 141.00 325.75 L 142.00 326.00 L 142.00 327.75 L 146.75 327.75 L 146.75 327.00 L 147.75 326.75 L 147.75 324.00 L 148.75 323.75 L 149.00 322.75 L 149.75 322.75 L 149.75 318.00 L 150.75 317.75 L 150.75 316.00 L 151.75 315.75 L 151.75 314.00 L 152.75 313.75 L 152.75 310.00 L 151.75 309.75 L 151.75 308.00 L 149.00 308.00 L 149.00 309.75 L 148.00 310.00 L 148.00 312.75 L 147.00 313.00 L 146.75 314.00 L 146.00 314.00 L 146.00 317.75 L 145.75 318.00 L 144.00 318.00 L 143.75 317.00 L 142.75 316.75 L 142.75 311.00 L 142.00 311.00 L 141.75 310.00 L 141.00 310.00 L 140.75 309.00 L 139.75 308.75 L 139.75 308.00 Z M 111.00 308.00 L 111.00 308.75 L 110.00 309.00 L 110.00 309.75 L 109.00 310.00 L 108.75 311.00 L 108.00 311.00 L 108.00 326.75 L 108.75 326.75 L 109.00 327.75 L 112.75 327.75 L 112.75 327.00 L 113.75 326.75 L 113.75 322.00 L 114.00 321.75 L 115.75 321.75 L 116.00 322.75 L 117.00 323.00 L 117.00 325.75 L 117.75 325.75 L 118.00 326.75 L 119.00 327.00 L 119.00 327.75 L 122.75 327.75 L 122.75 327.00 L 123.75 326.75 L 123.75 310.00 L 123.00 310.00 L 122.75 309.00 L 120.00 309.00 L 120.00 310.75 L 119.00 311.00 L 119.00 314.75 L 118.75 315.00 L 117.00 315.00 L 116.75 314.00 L 115.75 313.75 L 115.75 311.00 L 115.00 311.00 L 114.75 310.00 L 114.00 310.00 L 113.75 309.00 L 112.75 308.75 L 112.75 308.00 Z M 91.00 308.00 L 91.00 309.75 L 90.00 310.00 L 90.00 326.75 L 90.75 326.75 L 91.00 327.75 L 93.75 327.75 L 93.75 327.00 L 94.75 326.75 L 94.75 310.00 L 93.75 309.75 L 93.75 308.00 Z M 106.00 245.00 L 106.00 245.75 L 105.00 246.00 L 105.00 291.75 L 105.75 291.75 L 106.00 292.75 L 146.75 292.75 L 146.75 292.00 L 147.75 291.75 L 147.75 281.00 L 147.00 281.00 L 146.75 280.00 L 118.75 279.75 L 118.75 258.00 L 146.75 257.75 L 146.75 256.00 L 147.75 255.75 L 147.75 247.00 L 146.75 246.75 L 146.75 245.00 Z M 294.00 216.00 L 294.00 216.75 L 293.00 217.00 L 293.00 291.75 L 293.75 291.75 L 294.00 292.75 L 314.75 292.75 L 315.00 291.75 L 325.75 291.75 L 327.00 289.75 L 330.75 289.75 L 332.00 287.75 L 335.75 286.75 L 336.00 284.75 L 337.75 284.75 L 339.00 282.75 L 340.75 282.75 L 340.75 282.00 L 342.75 280.75 L 342.75 279.00 L 344.75 277.75 L 344.75 276.00 L 347.75 273.75 L 347.75 271.00 L 349.75 269.75 L 349.75 265.00 L 350.75 264.75 L 350.75 263.00 L 351.75 262.75 L 351.75 247.00 L 350.75 246.75 L 350.75 245.00 L 349.75 244.75 L 349.75 239.00 L 347.75 238.75 L 347.75 236.00 L 346.75 235.75 L 346.75 234.00 L 344.75 232.75 L 344.75 231.00 L 344.00 231.00 L 338.75 225.00 L 337.00 225.00 L 336.75 223.00 L 334.00 223.00 L 332.75 221.00 L 331.00 221.00 L 330.75 220.00 L 328.00 220.00 L 326.75 218.00 L 318.00 218.00 L 317.75 217.00 L 313.00 217.00 L 312.75 216.00 Z M 307.00 228.75 L 308.75 228.75 L 309.00 229.75 L 316.75 229.75 L 317.00 230.75 L 318.75 230.75 L 319.00 231.75 L 324.75 231.75 L 325.00 232.75 L 326.00 233.00 L 326.00 233.75 L 328.75 233.75 L 329.00 235.75 L 330.75 235.75 L 331.00 236.75 L 332.00 237.00 L 332.00 238.75 L 334.00 239.00 L 334.00 241.75 L 334.75 241.75 L 335.00 242.75 L 336.00 243.00 L 336.00 246.75 L 337.00 247.00 L 337.00 250.75 L 338.00 251.00 L 338.00 258.75 L 337.00 259.00 L 337.00 262.75 L 336.00 263.00 L 336.00 266.75 L 335.00 267.00 L 334.75 268.00 L 334.00 268.00 L 334.00 269.75 L 333.00 270.00 L 333.00 270.75 L 332.00 271.00 L 332.00 271.75 L 331.00 272.00 L 331.00 272.75 L 330.00 273.00 L 330.00 273.75 L 329.00 274.00 L 329.00 274.75 L 328.00 275.00 L 327.75 276.00 L 325.00 276.00 L 325.00 276.75 L 324.00 277.00 L 323.75 278.00 L 321.00 278.00 L 320.75 279.00 L 312.00 279.00 L 311.75 280.00 L 306.75 279.75 L 306.75 232.00 L 305.75 231.75 L 305.75 230.00 L 306.75 229.75 Z M 154.00 216.00 L 153.00 217.00 L 153.00 222.75 L 156.00 227.00 L 156.00 230.75 L 158.00 232.00 L 158.00 235.75 L 160.00 237.00 L 161.00 242.75 L 163.00 244.00 L 163.00 247.75 L 165.00 249.00 L 165.00 252.75 L 168.00 256.00 L 168.00 259.75 L 170.00 261.00 L 170.00 264.75 L 173.00 269.00 L 173.00 271.75 L 175.00 273.00 L 175.00 277.75 L 177.00 279.00 L 177.00 281.75 L 180.00 286.00 L 180.00 289.75 L 182.00 291.00 L 182.00 294.75 L 183.00 295.00 L 183.00 296.75 L 187.75 296.75 L 188.75 290.00 L 190.75 288.75 L 190.75 285.00 L 192.75 283.75 L 192.75 281.00 L 195.75 276.75 L 195.75 273.00 L 197.75 271.75 L 197.75 269.00 L 200.75 265.75 L 200.75 262.00 L 202.75 260.75 L 202.75 256.00 L 204.75 254.75 L 204.75 252.00 L 207.75 248.75 L 207.75 245.00 L 209.75 243.75 L 209.75 240.00 L 212.75 236.75 L 212.75 233.00 L 214.75 231.75 L 215.75 226.00 L 217.75 224.75 L 218.75 217.00 L 217.75 216.00 L 208.00 216.00 L 207.75 217.00 L 204.00 218.00 L 204.00 221.75 L 202.00 223.00 L 201.00 228.75 L 199.00 230.00 L 199.00 233.75 L 197.00 235.00 L 197.00 238.75 L 194.00 242.00 L 194.00 246.75 L 192.00 248.00 L 192.00 251.75 L 190.00 253.00 L 189.00 258.75 L 187.00 260.00 L 187.00 263.75 L 185.00 264.00 L 183.75 262.75 L 183.75 259.00 L 180.75 255.75 L 180.75 252.00 L 178.75 250.75 L 178.75 246.00 L 176.75 244.75 L 176.75 242.00 L 173.75 237.75 L 173.75 234.00 L 171.75 232.75 L 171.75 229.00 L 169.75 227.75 L 168.75 222.00 L 166.75 220.75 L 166.75 218.00 L 163.75 216.00 Z M 105.00 218.00 L 105.00 228.75 L 106.75 228.75 L 107.00 229.75 L 145.75 229.75 L 146.00 228.75 L 147.75 228.75 L 147.75 218.00 L 147.00 218.00 L 146.75 217.00 L 145.75 216.75 L 145.75 216.00 L 107.00 216.00 L 107.00 216.75 L 106.00 217.00 L 105.75 218.00 Z M 388.00 213.00 L 387.00 215.75 L 385.00 217.00 L 384.00 221.75 L 382.00 223.00 L 382.00 226.75 L 380.00 228.00 L 380.00 230.75 L 378.00 232.00 L 377.00 236.75 L 375.00 238.00 L 375.00 241.75 L 373.00 243.00 L 372.00 247.75 L 370.00 249.00 L 370.00 251.75 L 368.00 253.00 L 368.00 256.75 L 366.00 258.00 L 365.00 262.75 L 363.00 264.00 L 363.00 266.75 L 360.00 271.00 L 360.00 273.75 L 358.00 275.00 L 358.00 277.75 L 356.00 279.00 L 356.00 282.75 L 353.00 285.00 L 353.00 288.75 L 351.00 289.00 L 351.00 291.75 L 352.75 291.75 L 353.00 292.75 L 363.75 292.75 L 366.75 290.75 L 366.75 287.00 L 368.75 286.75 L 368.75 283.00 L 371.75 280.75 L 371.75 277.00 L 373.75 275.75 L 373.75 272.00 L 375.75 270.75 L 376.75 266.00 L 378.75 264.75 L 378.75 261.00 L 380.75 259.75 L 380.75 257.00 L 383.75 253.75 L 383.75 250.00 L 385.75 248.75 L 386.75 244.00 L 389.75 242.75 L 392.00 250.75 L 394.00 252.00 L 394.00 255.75 L 397.00 259.00 L 397.00 262.75 L 399.00 264.00 L 399.00 267.75 L 401.00 269.00 L 402.00 273.75 L 404.00 275.00 L 404.00 278.75 L 406.00 280.00 L 406.00 283.75 L 408.00 285.00 L 410.00 291.75 L 411.75 291.75 L 412.00 292.75 L 423.75 292.75 L 423.75 287.00 L 421.75 285.75 L 421.75 282.00 L 419.75 280.75 L 419.75 277.00 L 417.75 276.75 L 417.75 273.00 L 414.75 269.75 L 414.75 266.00 L 412.75 265.75 L 412.75 262.00 L 410.75 260.75 L 409.75 256.00 L 407.75 254.75 L 407.75 251.00 L 405.75 249.75 L 405.75 247.00 L 402.75 242.75 L 402.75 240.00 L 400.75 238.75 L 400.75 235.00 L 398.75 233.75 L 397.75 229.00 L 395.75 227.75 L 395.75 224.00 L 393.75 222.75 L 393.75 220.00 L 390.75 216.75 L 390.75 214.00 Z M 24.00 213.00 L 24.00 292.75 L 36.75 291.75 L 36.75 246.00 L 39.75 245.75 L 40.00 247.75 L 57.00 264.00 L 57.00 265.75 L 58.75 265.75 L 59.00 267.75 L 60.75 267.75 L 62.00 270.75 L 63.75 270.75 L 64.00 272.75 L 79.00 287.00 L 79.00 288.75 L 87.00 296.75 L 89.75 295.75 L 89.75 218.00 L 87.75 216.00 L 79.00 216.00 L 76.00 218.00 L 76.00 263.75 L 74.00 264.00 L 65.75 255.75 L 65.75 254.00 L 64.00 254.00 L 63.75 252.00 L 43.75 232.75 L 43.75 231.00 L 42.00 231.00 L 40.75 228.00 L 36.75 225.75 L 36.75 224.00 L 26.75 214.75 L 26.75 213.00 Z M 248.00 201.00 L 247.00 203.75 L 245.00 205.00 L 245.00 208.75 L 243.00 210.00 L 242.00 214.75 L 240.00 216.00 L 240.00 219.75 L 238.00 221.00 L 238.00 222.75 L 235.00 227.00 L 235.00 229.75 L 233.00 231.00 L 233.00 234.75 L 230.00 237.00 L 230.00 240.75 L 228.00 242.00 L 228.00 244.75 L 226.00 246.00 L 226.00 248.75 L 223.00 252.00 L 223.00 255.75 L 221.00 257.00 L 221.00 259.75 L 218.00 263.00 L 218.00 265.75 L 216.00 267.00 L 216.00 270.75 L 213.00 274.00 L 212.00 279.75 L 225.75 279.75 L 226.75 278.75 L 226.75 276.00 L 228.75 274.75 L 229.75 270.00 L 231.75 268.75 L 231.75 265.00 L 233.75 263.75 L 233.75 261.00 L 236.75 257.75 L 236.75 254.00 L 238.75 252.75 L 238.75 249.00 L 241.75 246.75 L 241.75 243.00 L 243.75 241.75 L 243.75 239.00 L 246.75 234.75 L 248.00 229.75 L 250.00 230.00 L 250.00 232.75 L 252.00 234.00 L 252.00 237.75 L 254.00 239.00 L 254.00 241.75 L 257.00 245.00 L 257.00 248.75 L 259.00 250.00 L 259.00 253.75 L 261.00 255.00 L 262.00 259.75 L 264.00 261.00 L 264.00 264.75 L 267.00 269.00 L 267.00 271.75 L 269.00 273.00 L 269.00 276.75 L 271.00 278.00 L 271.00 279.75 L 284.75 279.75 L 284.75 275.00 L 282.75 273.75 L 282.75 271.00 L 279.75 267.75 L 279.75 264.00 L 277.75 262.75 L 277.75 259.00 L 275.75 257.75 L 274.75 253.00 L 272.75 251.75 L 272.75 248.00 L 270.75 246.75 L 270.75 244.00 L 267.75 240.75 L 267.75 237.00 L 265.75 235.75 L 265.75 233.00 L 262.75 229.75 L 262.75 226.00 L 260.75 224.75 L 260.75 221.00 L 258.75 219.75 L 257.75 215.00 L 255.75 213.75 L 255.75 210.00 L 253.75 208.75 L 253.75 206.00 L 250.75 202.75 L 250.75 201.00 Z M 239.00 23.00 L 239.00 24.75 L 239.75 24.75 L 240.00 25.75 L 240.75 25.75 L 241.00 26.75 L 241.75 26.75 L 242.00 27.75 L 242.75 27.75 L 243.00 28.75 L 243.75 28.75 L 244.00 29.75 L 244.75 29.75 L 245.00 30.75 L 245.75 30.75 L 246.00 31.75 L 246.75 31.75 L 247.00 32.75 L 247.75 32.75 L 248.00 33.75 L 248.75 33.75 L 249.00 34.75 L 249.75 34.75 L 250.00 35.75 L 250.75 35.75 L 251.00 36.75 L 251.75 36.75 L 252.00 37.75 L 252.75 37.75 L 253.00 38.75 L 253.75 38.75 L 254.00 39.75 L 254.75 39.75 L 255.00 40.75 L 255.75 40.75 L 256.00 41.75 L 256.75 41.75 L 257.00 42.75 L 257.75 42.75 L 258.00 43.75 L 258.75 43.75 L 259.00 44.75 L 259.75 44.75 L 260.00 45.75 L 260.75 45.75 L 261.00 46.75 L 261.75 46.75 L 262.00 47.75 L 262.75 47.75 L 263.00 48.75 L 263.75 48.75 L 264.00 49.75 L 264.75 49.75 L 265.00 50.75 L 265.75 50.75 L 266.00 51.75 L 266.75 51.75 L 267.00 52.75 L 267.75 52.75 L 268.00 53.75 L 268.75 53.75 L 269.00 54.75 L 269.75 54.75 L 270.00 55.75 L 270.75 55.75 L 271.00 56.75 L 271.75 56.75 L 272.00 57.75 L 272.75 57.75 L 273.00 58.75 L 273.75 58.75 L 274.00 59.75 L 274.75 59.75 L 275.00 60.75 L 275.75 60.75 L 276.00 61.75 L 276.75 61.75 L 277.00 62.75 L 277.75 62.75 L 278.00 63.75 L 278.75 63.75 L 279.00 64.75 L 279.75 64.75 L 280.00 65.75 L 280.75 65.75 L 281.00 66.75 L 281.75 66.75 L 282.00 67.75 L 282.75 67.75 L 283.00 68.75 L 283.75 68.75 L 284.00 69.75 L 284.75 69.75 L 285.00 70.75 L 285.75 70.75 L 286.00 71.75 L 286.75 71.75 L 287.00 72.75 L 287.75 72.75 L 288.00 73.75 L 288.75 73.75 L 289.00 74.75 L 292.00 77.00 L 292.00 77.75 L 293.75 77.75 L 294.00 79.75 L 294.75 79.75 L 296.00 81.75 L 297.75 81.75 L 297.75 23.00 Z M 144.00 20.00 L 144.00 173.75 L 146.00 175.75 L 182.75 175.75 L 183.00 172.75 L 206.75 172.75 L 206.75 82.00 L 182.75 58.75 L 181.75 54.00 L 180.00 54.00 L 178.75 51.00 L 177.00 51.00 L 176.75 49.00 L 175.00 49.00 L 173.75 46.00 L 172.00 46.00 L 171.75 44.00 L 170.00 44.00 L 166.75 40.75 L 166.75 39.00 L 165.00 39.00 L 161.75 35.75 L 161.75 34.00 L 160.00 34.00 L 149.75 23.75 L 149.75 22.00 L 147.75 21.75 L 147.75 20.00 Z" fill="#1E5591" fill-rule="evenodd"/>
<path d="M 183.00 173.00 L 183.00 175.75 L 206.75 175.75 L 206.75 175.00 L 207.75 174.75 L 207.75 173.00 Z M 187.00 61.00 L 187.00 62.75 L 188.75 62.75 L 189.00 63.00 L 189.00 64.75 L 190.75 64.75 L 191.00 65.00 L 191.00 66.75 L 191.75 66.75 L 192.00 67.75 L 193.75 67.75 L 194.00 68.00 L 194.00 69.75 L 195.75 69.75 L 196.00 70.00 L 196.00 71.75 L 196.75 71.75 L 197.00 72.75 L 198.75 72.75 L 199.00 73.00 L 199.00 74.75 L 200.75 74.75 L 201.00 75.00 L 201.00 76.75 L 201.75 76.75 L 202.00 77.75 L 202.75 77.75 L 203.00 78.75 L 204.00 79.00 L 204.00 79.75 L 205.75 79.75 L 206.00 80.00 L 206.00 81.75 L 207.75 81.75 L 207.75 80.00 L 206.00 80.00 L 205.75 79.75 L 205.75 78.00 L 205.00 78.00 L 204.75 77.00 L 204.00 77.00 L 203.75 76.00 L 202.75 75.75 L 202.75 75.00 L 201.00 75.00 L 200.75 74.75 L 200.75 73.00 L 199.00 73.00 L 198.75 72.75 L 198.75 71.00 L 198.00 71.00 L 197.75 70.00 L 196.00 70.00 L 195.75 69.75 L 195.75 68.00 L 194.00 68.00 L 193.75 67.75 L 193.75 66.00 L 193.00 66.00 L 192.75 65.00 L 191.00 65.00 L 190.75 64.75 L 190.75 63.00 L 189.00 63.00 L 188.75 62.75 L 188.75 61.00 Z M 236.00 37.00 L 235.00 39.00 L 235.00 116.75 L 236.00 118.75 L 238.00 119.00 L 239.00 121.75 L 241.00 122.00 L 241.00 123.75 L 244.00 126.75 L 247.00 128.00 L 247.00 129.75 L 250.00 132.75 L 252.00 133.00 L 252.00 134.75 L 254.00 135.00 L 255.00 137.75 L 257.00 138.00 L 257.00 139.75 L 259.00 140.00 L 259.00 141.75 L 262.00 144.75 L 264.00 145.00 L 264.00 146.75 L 266.00 147.00 L 267.00 149.75 L 269.00 150.00 L 269.00 151.75 L 271.00 152.00 L 271.00 153.75 L 274.00 155.00 L 274.00 156.75 L 276.00 157.00 L 276.00 158.75 L 279.00 160.00 L 279.00 161.75 L 281.00 162.00 L 281.00 163.75 L 283.00 164.00 L 283.00 165.75 L 286.00 167.00 L 286.00 168.75 L 288.00 169.00 L 288.00 170.75 L 291.00 172.00 L 291.00 173.75 L 293.00 174.00 L 293.00 175.75 L 296.00 177.00 L 296.00 178.75 L 299.75 177.75 L 299.75 98.00 L 297.00 97.00 L 294.75 94.75 L 294.75 93.00 L 292.00 92.00 L 291.75 90.00 L 290.00 90.00 L 289.75 88.00 L 287.00 87.00 L 286.75 85.00 L 285.00 85.00 L 284.75 83.00 L 283.00 83.00 L 282.75 81.00 L 280.00 80.00 L 279.75 78.00 L 278.00 78.00 L 277.75 76.00 L 276.00 76.00 L 274.75 73.00 L 273.00 73.00 L 272.75 71.00 L 271.00 71.00 L 269.75 68.00 L 268.00 68.00 L 267.75 66.00 L 266.00 66.00 L 262.75 62.75 L 262.75 61.00 L 261.00 61.00 L 260.75 59.00 L 259.00 59.00 L 257.75 56.00 L 256.00 56.00 L 255.75 54.00 L 254.00 54.00 L 250.75 50.75 L 250.75 49.00 L 249.00 49.00 L 245.75 45.75 L 245.75 44.00 L 244.00 44.00 L 243.75 42.00 L 240.75 40.75 L 240.75 39.00 Z M 299.75 23.00 L 298.00 23.00 L 298.00 82.75 L 297.00 83.00 L 297.00 84.75 L 298.75 84.75 L 298.75 82.00 L 299.75 81.75 Z" fill="#23BAE8" fill-rule="evenodd"/>
</svg>